PathFileType	4	(X/Y/Z)	s03c0403.trc
DataRate	CameraRate	NumFrames	NumMarkers	Units	OrigDataRate	OrigDataStartFrame	OrigNumFrames
200	200	4	52	mm	200	0	2000
Frame#	Time	racr			lacr			c7			jug			rlel			rdr			llel			ldr			s2			lic			ric			lasi			rasi			rpsi			lpsi			rgt			lgt			rth1			rth2			rth3			rth4			rlfc			rmfc			rsh1			rsh2			rsh3			rsh4			rlmal			rmmal			rcal			rtoe			rmt5			rmt1			lth1			lth2			lth4			lth3			llfc			lmfc			lsh1			lsh2			lsh3			lsh4			llmal			lmmal			lcal			ltoe			lmt1			lmt5			SBIKE			LBIKE			RBIKE			
		X1	Y1	Z1	X2	Y2	Z2	X3	Y3	Z3	X4	Y4	Z4	X5	Y5	Z5	X6	Y6	Z6	X7	Y7	Z7	X8	Y8	Z8	X9	Y9	Z9	X10	Y10	Z10	X11	Y11	Z11	X12	Y12	Z12	X13	Y13	Z13	X14	Y14	Z14	X15	Y15	Z15	X16	Y16	Z16	X17	Y17	Z17	X18	Y18	Z18	X19	Y19	Z19	X20	Y20	Z20	X21	Y21	Z21	X22	Y22	Z22	X23	Y23	Z23	X24	Y24	Z24	X25	Y25	Z25	X26	Y26	Z26	X27	Y27	Z27	X28	Y28	Z28	X29	Y29	Z29	X30	Y30	Z30	X31	Y31	Z31	X32	Y32	Z32	X33	Y33	Z33	X34	Y34	Z34	X35	Y35	Z35	X36	Y36	Z36	X37	Y37	Z37	X38	Y38	Z38	X39	Y39	Z39	X40	Y40	Z40	X41	Y41	Z41	X42	Y42	Z42	X43	Y43	Z43	X44	Y44	Z44	X45	Y45	Z45	X46	Y46	Z46	X47	Y47	Z47	X48	Y48	Z48	X49	Y49	Z49	X50	Y50	Z50	X51	Y51	Z51	X52	Y52	Z52	
0	0.0000	492.624545	1452.988269	-89.430761	484.250906	1476.450124	-405.339805	404.964532	1530.508426	-243.420916	462.184826	1365.480195	-242.883569	524.564462	1182.746814	15.721058	740.073318	989.421204	-27.709604	536.489811	1205.061033	-484.389652	738.174587	978.381852	-448.696862	-84.487375	1203.772184	-254.448896	108.959322	1207.963859	-437.190855	91.678682	1238.431955	-68.536150	118.385899	1128.982044	-394.069753	105.912662	1170.130780	-109.064846	-57.316462	1256.500641	-211.589837	-48.021834	1248.812193	-294.914168	29.684306	1161.590588	-46.305952	37.407447	1095.881956	-443.291070	151.332659	1071.172502	-25.341981	240.011366	1065.732691	-22.346003	313.507942	1020.339206	-22.671486	252.193408	1098.055944	-35.693726	432.977329	953.796052	-41.038698	441.661086	939.001736	-164.358781	364.559371	803.588145	-26.354243	345.991465	718.127809	-43.479899	284.007627	654.341725	-49.478986	371.027361	707.462774	-70.169510	217.849382	539.006312	-75.001550	244.086106	553.973798	-162.707972	151.395324	491.241443	-117.247884	461.302853	494.394174	-114.377869	342.464733	473.392408	-45.764233	368.120500	491.520848	-159.897401	102.597883	951.005214	-463.231367	159.264987	885.297541	-463.737363	192.105228	901.214029	-458.625943	176.519298	798.277441	-453.186477	246.699200	687.090493	-434.444784	251.586754	678.011113	-310.627917	150.047892	542.067133	-453.868963	132.854597	460.964318	-434.231710	72.773471	392.531065	-424.386633	161.066527	449.573179	-409.114077	8.954335	281.495337	-401.088325	0.000000	0.000000	-0.000000	-60.600608	237.193991	-349.563856	247.380277	214.445606	-359.635714	154.819171	214.974760	-313.591795	124.620622	196.071694	-427.999342	-214.454883	945.164106	-232.766613	-8.901291	80.025787	-432.714590	-9.586890	80.917902	-32.764067	
1	0.0050	492.612149	1452.983218	-89.436798	484.259797	1476.432762	-405.327469	404.963946	1530.510467	-243.345723	462.187159	1365.498498	-242.820802	524.535978	1182.741543	15.734105	740.053191	989.417808	-27.730655	536.475468	1205.043428	-484.361404	738.155135	978.384594	-448.689561	-84.471989	1203.790798	-254.457096	108.960218	1207.942246	-437.191768	91.670850	1238.428067	-68.549784	118.379353	1128.967489	-394.041614	105.874663	1170.211540	-109.023697	-57.305572	1256.507413	-211.598095	-48.131614	1248.861235	-294.918141	29.689352	1161.589991	-46.304308	37.399878	1095.889115	-443.296811	151.366724	1071.175540	-25.359679	240.027098	1065.748431	-22.362969	313.514313	1020.355188	-22.680663	252.208152	1098.100291	-35.657282	432.973982	953.819929	-41.021173	441.662813	939.020600	-164.326379	364.562785	803.600292	-26.346264	345.997838	718.117827	-43.452301	283.991411	654.358706	-49.477287	371.033238	707.477660	-70.162428	217.836719	539.043539	-74.986246	244.052140	553.999087	-162.705263	151.384897	491.284638	-117.254213	461.286549	494.417194	-114.364676	342.477626	473.397450	-45.771352	368.106154	491.538497	-159.892176	102.598545	950.992352	-463.229322	159.266818	885.286677	-463.737299	192.103455	901.191029	-458.624557	176.510330	798.270249	-453.169142	246.687764	687.086026	-434.438368	251.573485	678.015667	-310.623107	150.025781	542.049013	-453.875877	132.848239	460.948430	-434.214367	72.790096	392.486448	-424.366665	161.060215	449.552817	-409.090993	8.944709	281.479366	-401.089715	0.000000	0.000000	-0.000000	-60.601982	237.167843	-349.571088	247.389361	214.466525	-359.606002	154.817112	214.971622	-313.593061	124.620241	196.063908	-427.997874	-214.446062	945.170419	-232.779179	-8.914309	79.939194	-432.764327	-9.594083	80.938684	-32.756243	
2	0.0100	492.624007	1452.948686	-89.435015	484.236593	1476.429265	-405.305917	404.975504	1530.507280	-243.363297	462.130379	1365.507326	-242.799864	524.502892	1182.712368	15.733981	740.036114	989.424384	-27.740675	536.474867	1205.041294	-484.321247	738.163203	978.380671	-448.699659	-84.479714	1203.790551	-254.457406	108.342549	1207.553517	-435.940744	91.663709	1238.435019	-68.550496	118.384226	1128.980108	-394.099386	105.879811	1170.208682	-109.030201	-57.297959	1256.495211	-211.613482	-48.147048	1248.867574	-294.903372	29.683812	1161.596376	-46.299353	37.392311	1095.875828	-443.310208	151.341171	1071.186149	-25.345213	240.028735	1065.758490	-22.372449	313.522398	1020.382672	-22.678275	252.183575	1098.121734	-35.662577	432.973955	953.837081	-41.020949	441.662813	939.020600	-164.326379	364.564171	803.613989	-26.350844	345.986470	718.153215	-43.453967	283.985111	654.374015	-49.478660	371.031956	707.488146	-70.140050	217.823104	539.049823	-74.986581	244.055238	554.029833	-162.691493	151.384986	491.295796	-117.251782	461.283325	494.421116	-114.366563	342.466543	473.403571	-45.769081	368.096284	491.535973	-159.898932	102.590290	950.984412	-463.229934	159.257544	885.272433	-463.724301	192.104232	901.184207	-458.614869	176.505670	798.259751	-453.161228	246.676682	687.070884	-434.423116	251.531744	678.001722	-310.611009	150.018206	542.034515	-453.848338	132.849460	460.934230	-434.215583	72.783873	392.464304	-424.357149	161.035228	449.550756	-409.069219	8.941802	281.458567	-401.091935	0.000000	0.000000	-0.000000	-60.593799	237.146789	-349.572694	247.373383	214.507229	-359.600860	154.827694	214.972970	-313.592393	124.626984	196.063027	-428.009233	-214.444221	945.168013	-232.758549	-8.926899	79.934911	-432.765683	-9.595171	80.920741	-32.765929	
3	0.0150	492.607124	1452.954799	-89.449680	484.226954	1476.426511	-405.283054	404.971927	1530.530676	-243.352862	459.623657	1365.433207	-244.220412	524.479867	1182.701946	15.744017	740.025461	989.421974	-27.760461	537.080928	1205.003673	-483.623330	738.159209	978.378889	-448.685258	-84.469773	1203.800417	-254.460322	107.930943	1207.290620	-435.106906	92.030288	1238.422109	-68.514807	118.094497	1127.761994	-391.515380	105.874663	1170.211540	-109.023697	-57.290523	1256.498668	-211.624271	-48.149623	1248.864415	-294.917359	29.680888	1161.610093	-46.293505	37.120461	1095.934341	-443.639362	151.247318	1071.178464	-25.344464	240.021451	1065.786959	-22.369009	313.665355	1020.367920	-22.548448	251.377717	1098.555434	-36.413360	433.927965	953.241307	-40.831125	441.903733	940.125049	-166.490565	364.558865	803.626794	-26.336540	345.985645	718.165238	-43.454100	283.986605	654.390496	-49.470531	372.344807	708.402167	-69.826820	217.815936	539.080147	-74.987872	243.914008	554.128139	-162.646454	151.381155	491.322387	-117.246466	461.272356	494.420732	-114.364945	342.451360	473.424738	-45.770608	368.101008	491.556345	-159.896820	102.547208	950.955987	-463.283451	159.797074	884.409746	-461.974110	192.559359	900.642596	-457.537665	176.476712	798.237215	-453.155094	247.229533	686.430807	-433.204668	251.503027	677.991504	-310.598258	150.627125	541.156460	-452.351369	133.201033	459.796814	-432.060387	72.774257	392.449989	-424.349549	161.407920	448.630404	-407.281580	8.797050	281.844060	-401.789421	0.000000	0.000000	-0.000000	-60.598399	237.120648	-349.573115	247.720019	214.467477	-359.449865	155.314748	213.633894	-311.968881	125.291941	194.423851	-425.785207	-214.491739	945.166204	-233.002547	-8.921342	79.946363	-432.764671	-9.616862	80.920415	-32.779687	
